<svg xmlns="http://www.w3.org/2000/svg" viewBox="0 0 50 50"><path fill="none" stroke="#000" stroke-miterlimit="10" stroke-width="2" d="M43.421 12.875L26.579 3.412c-.977-.549-2.181-.549-3.158 0L6.579 12.875C5.602 13.424 5 14.439 5 15.537v18.927c0 1.098.602 2.113 1.579 2.662l16.842 9.463c.977.549 2.181.549 3.158 0l16.842-9.463C44.398 36.576 45 35.561 45 34.463V15.537C45 14.439 44.398 13.424 43.421 12.875zM36 20L36 30M40 20L40 30M33 23L43 23M33 27L43 27"/><path fill="none" stroke="#000" stroke-miterlimit="10" stroke-width="2" d="M25,13c3.78,0,7.275,1.755,9.542,4.741l-4.38,2.536C28.844,18.837,26.973,18,25,18c-3.86,0-7,3.14-7,7s3.14,7,7,7c1.973,0,3.844-0.837,5.162-2.277l4.38,2.536C32.275,35.245,28.78,37,25,37c-6.617,0-12-5.383-12-12S18.383,13,25,13"/></svg>